<?xml version="1.0" encoding="UTF-8" standalone="no"?>
<!-- Created with Inkscape (http://www.inkscape.org/) -->

<svg
   xmlns:dc="http://purl.org/dc/elements/1.1/"
   xmlns:cc="http://creativecommons.org/ns#"
   xmlns:rdf="http://www.w3.org/1999/02/22-rdf-syntax-ns#"
   xmlns:svg="http://www.w3.org/2000/svg"
   xmlns="http://www.w3.org/2000/svg"
   xmlns:sodipodi="http://sodipodi.sourceforge.net/DTD/sodipodi-0.dtd"
   xmlns:inkscape="http://www.inkscape.org/namespaces/inkscape"
   width="426"
   height="240"
   viewBox="0 0 112.7125 63.500002"
   version="1.1"
   id="svg8"
   inkscape:version="0.92.5 (0.92.5+69)"
   sodipodi:docname="presentation_master.svg">
  <defs
     id="defs2" />
  <sodipodi:namedview
     id="base"
     pagecolor="#ffffff"
     bordercolor="#666666"
     borderopacity="1.0"
     inkscape:pageopacity="0.0"
     inkscape:pageshadow="2"
     inkscape:zoom="2.9329912"
     inkscape:cx="167.74"
     inkscape:cy="98.525782"
     inkscape:document-units="mm"
     inkscape:current-layer="layer2"
     showgrid="false"
     inkscape:window-width="1171"
     inkscape:window-height="748"
     inkscape:window-x="705"
     inkscape:window-y="239"
     inkscape:window-maximized="0"
     units="px"
     inkscape:pagecheckerboard="false"
     inkscape:snap-global="false" />
  <metadata
     id="metadata5">
    <rdf:RDF>
      <cc:Work
         rdf:about="">
        <dc:format>image/svg+xml</dc:format>
        <dc:type
           rdf:resource="http://purl.org/dc/dcmitype/StillImage" />
        <dc:title />
        <cc:license
           rdf:resource="http://creativecommons.org/licenses/by-sa/4.0/" />
      </cc:Work>
      <cc:License
         rdf:about="http://creativecommons.org/licenses/by-sa/4.0/">
        <cc:permits
           rdf:resource="http://creativecommons.org/ns#Reproduction" />
        <cc:permits
           rdf:resource="http://creativecommons.org/ns#Distribution" />
        <cc:requires
           rdf:resource="http://creativecommons.org/ns#Notice" />
        <cc:requires
           rdf:resource="http://creativecommons.org/ns#Attribution" />
        <cc:permits
           rdf:resource="http://creativecommons.org/ns#DerivativeWorks" />
        <cc:requires
           rdf:resource="http://creativecommons.org/ns#ShareAlike" />
      </cc:License>
    </rdf:RDF>
  </metadata>
  <g
     inkscape:label="Slide 1"
     inkscape:groupmode="layer"
     id="layer1"
     transform="translate(0,-233.5)"
     style="display:none">
    <rect
       style="fill:#0000ff;fill-rule:evenodd;stroke-width:0.16021316"
       id="rect840"
       width="150.73575"
       height="3.0423727"
       x="-17.147919"
       y="294.23419" />
    <rect
       style="display:inline;fill:#0000ff;fill-rule:evenodd;stroke-width:0.16021316"
       id="rect840-2"
       width="150.73575"
       height="3.0423727"
       x="-10.438256"
       y="233.48276" />
    <text
       xml:space="preserve"
       style="font-style:normal;font-variant:normal;font-weight:normal;font-stretch:normal;font-size:3.17499995px;line-height:1;font-family:cmr10;-inkscape-font-specification:cmr10;font-variant-ligatures:normal;font-variant-position:normal;font-variant-caps:normal;font-variant-numeric:normal;font-variant-alternates:normal;font-feature-settings:normal;text-indent:0;text-align:start;text-decoration:none;text-decoration-line:none;text-decoration-style:solid;text-decoration-color:#000000;letter-spacing:0px;word-spacing:0px;text-transform:none;writing-mode:lr-tb;direction:ltr;text-orientation:mixed;dominant-baseline:auto;baseline-shift:baseline;text-anchor:start;white-space:normal;shape-padding:0;opacity:1;vector-effect:none;fill:#ffffff;fill-opacity:1;stroke:none;stroke-width:0.52916664;stroke-linecap:butt;stroke-linejoin:miter;stroke-miterlimit:4;stroke-dasharray:none;stroke-dashoffset:0;stroke-opacity:1"
       x="49.229031"
       y="296.79459"
       id="text859"><tspan
         sodipodi:role="line"
         id="tspan857"
         x="49.229031"
         y="296.79459"
         style="fill:#ffffff;stroke-width:0.52916664">Presentation</tspan></text>
  </g>
  <g
     inkscape:groupmode="layer"
     id="layer2"
     inkscape:label="Slide 2"
     style="display:inline">
    <rect
       style="fill:#ff00ff;fill-rule:evenodd;stroke-width:0.18905193"
       id="rect861"
       width="4.6201797"
       height="63.947983"
       x="108.05331"
       y="-0.19833076" />
    <path
       style="fill:#ff00ff;fill-opacity:1;stroke:none;stroke-width:0.35423657;stroke-miterlimit:4;stroke-dasharray:none;stroke-dashoffset:0;stroke-opacity:1"
       d="m 108.58248,-0.19444905 c 0,0 -4.13974,2.67627905 -4.13974,5.33998565 0,2.9274098 4.13974,5.3399864 4.13974,5.3399864 0,0 -4.13974,2.676278 -4.13974,5.339985 0,2.663708 4.13974,5.339985 4.13974,5.339985 0,0 -4.13974,2.67628 -4.13974,5.339986 0,2.663707 4.13974,5.339986 4.13974,5.339986 0,0 -4.13974,2.676279 -4.13974,5.339986 0,2.663706 4.13974,5.339986 4.13974,5.339986 0,0 -4.13974,2.676278 -4.13974,5.339986 0,2.663706 4.13974,5.339985 4.13974,5.339985 0,0 -4.13974,2.676279 -4.13974,5.339986 0,2.663706 4.13974,5.339986 4.13974,5.339986"
       id="path863"
       inkscape:connector-curvature="0"
       sodipodi:nodetypes="ccccccccccccc" />
    <rect
       style="display:inline;fill:#ff00ff;fill-rule:evenodd;stroke-width:0.18905193"
       id="rect861-9"
       width="4.6201797"
       height="63.947983"
       x="-4.6118002"
       y="-0.22438018"
       transform="scale(-1,1)" />
    <path
       style="display:inline;fill:#ff00ff;fill-opacity:1;stroke:none;stroke-width:0.35423657;stroke-miterlimit:4;stroke-dasharray:none;stroke-dashoffset:0;stroke-opacity:1"
       d="m 4.0826254,-0.2204983 c 0,0 4.139741,2.676279 4.139741,5.339986 0,2.92741 -4.139741,5.3399863 -4.139741,5.3399863 0,0 4.139741,2.676278 4.139741,5.339985 0,2.663708 -4.139741,5.339985 -4.139741,5.339985 0,0 4.139741,2.67628 4.139741,5.339987 0,2.663706 -4.139741,5.339985 -4.139741,5.339985 0,0 4.139741,2.676279 4.139741,5.339985 0,2.663708 -4.139741,5.339987 -4.139741,5.339987 0,0 4.139741,2.676279 4.139741,5.339985 0,2.663706 -4.139741,5.339985 -4.139741,5.339985 0,0 4.139741,2.676279 4.139741,5.339988 0,2.663706 -4.139741,5.339985 -4.139741,5.339985"
       id="path863-1"
       inkscape:connector-curvature="0"
       sodipodi:nodetypes="ccccccccccccc" />
  </g>
</svg>
