<?xml version="1.0" encoding="UTF-8" standalone="no"?>
<!-- Created with Inkscape (http://www.inkscape.org/) -->

<svg
   xmlns:dc="http://purl.org/dc/elements/1.1/"
   xmlns:cc="http://creativecommons.org/ns#"
   xmlns:rdf="http://www.w3.org/1999/02/22-rdf-syntax-ns#"
   xmlns:svg="http://www.w3.org/2000/svg"
   xmlns="http://www.w3.org/2000/svg"
   xmlns:sodipodi="http://sodipodi.sourceforge.net/DTD/sodipodi-0.dtd"
   xmlns:inkscape="http://www.inkscape.org/namespaces/inkscape"
   width="426"
   height="240"
   viewBox="0 0 112.7125 63.500002"
   version="1.1"
   id="svg8"
   inkscape:version="0.92.5 (0.92.5+69)"
   sodipodi:docname="presentation_A.svg">
  <defs
     id="defs2">
    <inkscape:path-effect
       effect="powerstroke"
       id="path-effect857"
       is_visible="true"
       offset_points="0.024944403,-0.22408099"
       sort_points="true"
       interpolator_type="CubicBezierJohan"
       interpolator_beta="0.2"
       start_linecap_type="zerowidth"
       linejoin_type="extrp_arc"
       miter_limit="4"
       end_linecap_type="zerowidth" />
    <inkscape:path-effect
       effect="spiro"
       id="path-effect855"
       is_visible="true" />
    <inkscape:path-effect
       effect="powerstroke"
       id="path-effect847"
       is_visible="true"
       offset_points="0,0.26458332"
       sort_points="true"
       interpolator_type="CubicBezierJohan"
       interpolator_beta="0.2"
       start_linecap_type="zerowidth"
       linejoin_type="extrp_arc"
       miter_limit="4"
       end_linecap_type="zerowidth" />
    <inkscape:path-effect
       effect="spiro"
       id="path-effect845"
       is_visible="true" />
    <inkscape:path-effect
       effect="powerstroke"
       id="path-effect841"
       is_visible="true"
       offset_points="0,0.26458332"
       sort_points="true"
       interpolator_type="CubicBezierJohan"
       interpolator_beta="0.2"
       start_linecap_type="zerowidth"
       linejoin_type="extrp_arc"
       miter_limit="4"
       end_linecap_type="zerowidth" />
    <inkscape:path-effect
       effect="spiro"
       id="path-effect839"
       is_visible="true" />
  </defs>
  <sodipodi:namedview
     id="base"
     pagecolor="#ffffff"
     bordercolor="#666666"
     borderopacity="1.0"
     inkscape:pageopacity="0.0"
     inkscape:pageshadow="2"
     inkscape:zoom="1.9316786"
     inkscape:cx="162.70578"
     inkscape:cy="102.02626"
     inkscape:document-units="mm"
     inkscape:current-layer="layer6"
     showgrid="false"
     inkscape:window-width="1920"
     inkscape:window-height="1052"
     inkscape:window-x="0"
     inkscape:window-y="0"
     inkscape:window-maximized="1"
     units="px"
     inkscape:pagecheckerboard="false" />
  <metadata
     id="metadata5">
    <rdf:RDF>
      <cc:Work
         rdf:about="">
        <dc:format>image/svg+xml</dc:format>
        <dc:type
           rdf:resource="http://purl.org/dc/dcmitype/StillImage" />
        <dc:title></dc:title>
        <cc:license
           rdf:resource="http://creativecommons.org/licenses/by-sa/4.0/" />
      </cc:Work>
      <cc:License
         rdf:about="http://creativecommons.org/licenses/by-sa/4.0/">
        <cc:permits
           rdf:resource="http://creativecommons.org/ns#Reproduction" />
        <cc:permits
           rdf:resource="http://creativecommons.org/ns#Distribution" />
        <cc:requires
           rdf:resource="http://creativecommons.org/ns#Notice" />
        <cc:requires
           rdf:resource="http://creativecommons.org/ns#Attribution" />
        <cc:permits
           rdf:resource="http://creativecommons.org/ns#DerivativeWorks" />
        <cc:requires
           rdf:resource="http://creativecommons.org/ns#ShareAlike" />
      </cc:License>
    </rdf:RDF>
  </metadata>
  <g
     inkscape:groupmode="layer"
     id="layer6"
     inkscape:label="background">
    <rect
       style="fill:#ffffff;fill-rule:evenodd;stroke-width:0.23415147"
       id="rect844"
       width="112.7125"
       height="63.5"
       x="0"
       y="7.4133277e-07" />
  </g>
  <g
     inkscape:label="Title"
     inkscape:groupmode="layer"
     id="layer1"
     transform="translate(0,-233.5)"
     style="display:inline">
    <text
       xml:space="preserve"
       style="font-style:normal;font-variant:normal;font-weight:normal;font-stretch:normal;font-size:7.76111126px;line-height:1;font-family:sans-serif;-inkscape-font-specification:sans-serif;font-variant-ligatures:normal;font-variant-position:normal;font-variant-caps:normal;font-variant-numeric:normal;font-variant-alternates:normal;font-feature-settings:normal;text-indent:0;text-align:start;text-decoration:none;text-decoration-line:none;text-decoration-style:solid;text-decoration-color:#000000;letter-spacing:0px;word-spacing:0px;text-transform:none;writing-mode:lr-tb;direction:ltr;text-orientation:mixed;dominant-baseline:auto;baseline-shift:baseline;text-anchor:start;white-space:normal;shape-padding:0;opacity:1;vector-effect:none;fill:#000000;fill-opacity:1;stroke:none;stroke-width:0.52916664;stroke-linecap:butt;stroke-linejoin:miter;stroke-miterlimit:4;stroke-dasharray:none;stroke-dashoffset:0;stroke-opacity:1"
       x="11.120307"
       y="261.33908"
       id="text1575"><tspan
         sodipodi:role="line"
         id="tspan1573"
         x="11.120307"
         y="261.33908"
         style="font-style:normal;font-variant:normal;font-weight:normal;font-stretch:normal;font-family:sans-serif;-inkscape-font-specification:sans-serif;stroke-width:0.52916664">This is a title</tspan></text>
  </g>
  <g
     inkscape:groupmode="layer"
     id="layer4"
     inkscape:label="Title flourishing"
     style="display:inline">
    <g
       id="g863"
       transform="rotate(-19.315434,74.175825,25.6847)">
      <g
         transform="translate(1.4091228,-14.97193)"
         id="g851">
        <path
           style="fill:#000000;fill-opacity:1;fill-rule:nonzero;stroke:none;stroke-width:0.52916664;stroke-miterlimit:4;stroke-dasharray:none;stroke-dashoffset:0;stroke-opacity:1"
           d="m 8.1024562,15.061403 c 0,0 0.2387121,0.114109 0.2387121,0.114109 C 9.9597295,11.789541 12.64422,8.206208 16.587914,5.4492095 19.849621,3.1689817 23.971957,1.481843 28.558405,1.0445275 33.807791,0.54492838 39.186378,1.695768 44.701922,3.6386501 49.7179,5.4055577 54.73955,7.7957548 60.16688,9.6395519 c 3.69296,1.2532821 7.665462,2.2602041 11.771197,2.5598651 3.936093,0.287279 8.065714,-0.08533 11.92524,-1.500377 3.736941,-1.3700963 7.230426,-3.7605517 9.631188,-7.0870998 2.345051,-3.2493506 3.585303,-7.4177485 3.017911,-11.4714646 -0.360946,-2.5648406 -1.448229,-5.0616506 -3.212902,-7.0002226 -1.751988,-1.92464 -4.173034,-3.265879 -6.765307,-3.598272 -2.592748,-0.332457 -5.319463,0.378791 -7.338743,2.023075 -2.035353,1.657371 -3.279041,4.247893 -3.202169,6.839437 0.04349,1.3779383 0.450938,2.7349925 1.205605,3.8577394 0.772888,1.1498569 1.906702,2.0336465 3.186518,2.4491658 1.324702,0.4300942 2.782658,0.3405881 3.982037,-0.2475874 1.258407,-0.6171212 2.19178,-1.7737806 2.506452,-3.0585462 0.183707,-0.7590344 0.15461,-1.5369512 -0.04333,-2.2346022 -0.215286,-0.758797 -0.626513,-1.4177684 -1.132779,-1.9193394 -0.570961,-0.565666 -1.256458,-0.929641 -1.924832,-1.113005 -0.808053,-0.221684 -1.586234,-0.183902 -2.219985,-0.02639 0.63412,-0.157604 1.412293,-0.192273 2.217823,0.03417 0.666231,0.18729 1.346202,0.555828 1.908644,1.123566 0.498717,0.503414 0.899292,1.1614058 1.103793,1.9141388 0.188029,0.6921035 0.207024,1.4594929 0.01724,2.2032062 -0.317848,1.2601622 -1.242909,2.3880261 -2.478684,2.9828271 -1.177944,0.5669677 -2.604689,0.6430717 -3.894237,0.2134189 -1.245939,-0.4151216 -2.345695,-1.2866027 -3.090168,-2.4133332 -0.726951,-1.10021 -1.113853,-2.4270411 -1.145423,-3.7709136 -0.06427,-2.5266032 1.160201,-5.0484412 3.149326,-6.6541002 1.973551,-1.593091 4.634874,-2.275182 7.15871,-1.94057 2.523475,0.334561 4.879012,1.652188 6.579002,3.53579 1.712342,1.897284 2.764152,4.339083 3.106121,6.8457049 0.543343,3.9600967 -0.679017,8.03679011 -2.984476,11.213438 -2.360242,3.2521355 -5.794279,5.5915757 -9.472581,6.9294081 -3.799087,1.381764 -7.869776,1.740692 -11.758558,1.447204 C 67.912724,11.469723 63.980606,10.464377 60.313118,9.2102715 54.923388,7.3691638 49.905795,4.9713725 44.861756,3.186002 39.318871,1.2240622 33.863587,0.04095349 28.511059,0.54354246 23.831038,0.98218064 19.622436,2.6973804 16.289586,5.0219737 12.260074,7.8324732 9.5169787,11.488787 7.8637441,14.947294 c 0,0 0.2387121,0.114109 0.2387121,0.114109 z"
           id="path837"
           inkscape:connector-curvature="0"
           inkscape:path-effect="#path-effect839;#path-effect841"
           inkscape:original-d="M 8.1024562,15.061403 C 14.913481,10.305349 21.724241,5.5495594 28.534738,0.79403444 35.345232,-3.9614903 49.671842,6.5476879 60.239999,9.4249117 70.808156,12.302135 84.31278,-2.0831892 96.348771,-7.8368426 108.38476,-13.590496 82.844943,-9.0113764 76.092631,-9.5982463 c -6.752312,-0.5868697 7.163305,1.9959928 10.744562,2.9943861 3.581255,0.9983933 -3.522543,-3.5230718 -5.28421,-5.2842108"
           transform="translate(13.915088,48.262457)" />
        <path
           style="fill:#000000;fill-opacity:1;fill-rule:nonzero;stroke:none;stroke-width:0.52916664;stroke-miterlimit:4;stroke-dasharray:none;stroke-dashoffset:0;stroke-opacity:1"
           d="m 24.44039,59.233937 c 0,0 0.202498,0.170291 0.202498,0.170291 3.605279,-4.287133 8.933944,-8.634676 15.959508,-11.250211 8.133851,-3.026754 17.493337,-3.352949 27.523148,-1.673104 1.922062,0.318458 4.211073,0.78142 6.407761,0.739081 1.065498,-0.02053 2.177894,-0.167822 3.239661,-0.500479 1.027422,-0.321897 2.016424,-0.820393 2.861833,-1.553429 1.534231,-1.330738 2.479179,-3.408808 2.390592,-5.535739 -0.08503,-2.041596 -1.133687,-4.062478 -2.834724,-5.302355 -1.658375,-1.20878 -3.889718,-1.62988 -5.897913,-1.072254 -1.983996,0.550906 -3.686814,2.044013 -4.486824,3.947688 -0.313061,0.755723 -0.488325,1.568292 -0.486969,2.382037 0.0014,0.823229 0.185499,1.639754 0.551264,2.36073 0.374658,0.738511 0.937246,1.366289 1.616299,1.792103 0.706006,0.442718 1.527458,0.657751 2.318731,0.614584 0.798242,-0.04385 1.54695,-0.348155 2.126346,-0.812221 0.630508,-0.505005 1.054858,-1.189288 1.252418,-1.888287 0.224506,-0.794338 0.159492,-1.595468 -0.07689,-2.255852 -0.293458,-0.81985 -0.836872,-1.418462 -1.36678,-1.789153 0.530472,0.371086 1.070094,0.972672 1.355578,1.793107 0.229921,0.660759 0.28485,1.457804 0.05252,2.241602 -0.204452,0.689755 -0.633228,1.35813 -1.259453,1.844583 -0.575527,0.44707 -1.312198,0.731851 -2.088639,0.761861 -0.769456,0.03004 -1.56231,-0.19187 -2.237067,-0.630496 -0.649043,-0.421907 -1.181267,-1.03672 -1.529627,-1.753057 -0.340108,-0.699366 -0.50363,-1.487583 -0.491393,-2.278 0.0121,-0.781348 0.193912,-1.559275 0.507233,-2.280219 0.781148,-1.823812 2.426736,-3.243049 4.324102,-3.756042 1.921177,-0.51943 4.046329,-0.100514 5.611961,1.056757 1.606515,1.18749 2.585894,3.111927 2.653626,5.037756 0.07059,2.007153 -0.83547,3.960273 -2.281715,5.199218 -0.797041,0.683051 -1.733305,1.150238 -2.715787,1.452053 -1.015855,0.312067 -2.085459,0.448791 -3.116057,0.463183 -2.141496,0.02991 -4.371348,-0.432405 -6.318546,-0.764097 -10.082714,-1.699459 -19.539021,-1.388092 -27.784924,1.673567 -7.124087,2.643942 -12.528372,7.047173 -16.184274,11.394503 0,0 0.202498,0.170291 0.202498,0.170291 z"
           id="path843"
           inkscape:connector-curvature="0"
           inkscape:path-effect="#path-effect845;#path-effect847"
           inkscape:original-d="m 24.44039,59.233937 c 2.862545,-3.934064 13.019056,-6.977828 16.071891,-11.322357 3.094538,-4.403877 17.027164,-2.378162 27.654034,-1.673336 10.626871,0.704826 8.220149,-0.822251 12.329824,-1.232982 4.109678,-0.410729 -7.045349,-5.167048 -10.568421,-7.750175 -3.52307,-2.583127 2.583659,4.696812 3.87509,7.045613 1.291431,2.348804 1.29196,-4.462486 1.937544,-6.693333"
           sodipodi:nodetypes="csssssc" />
      </g>
      <path
         sodipodi:nodetypes="cssssc"
         transform="translate(0,-0.17614035)"
         inkscape:original-d="m 51.065514,34.479841 c 4.401034,2.324669 9.770573,3.945041 14.171078,6.270242 4.400502,2.325198 3.43226,6.848762 5.632378,9.921263 2.200119,3.072497 -8.801271,2.407703 -13.202303,3.611951 -4.401031,1.204248 5.0653,-3.155532 7.597553,-4.732901 2.532253,-1.577369 -3.071972,2.656803 -4.608351,3.985601"
         inkscape:path-effect="#path-effect855;#path-effect857"
         inkscape:connector-curvature="0"
         id="path853"
         d="m 51.065514,34.479841 c 0.07721,0.01226 0.346084,-0.170337 0.423705,-0.156956 4.317449,0.744304 9.336025,2.606822 13.884487,6.256112 1.402589,1.127353 2.936946,2.567091 4.06575,4.371693 1.003687,1.604572 1.734506,3.617408 1.624521,5.730343 -0.08031,1.523437 -0.610282,3.090322 -1.605754,4.386714 -0.93933,1.223279 -2.290096,2.187639 -3.843502,2.634323 -1.49353,0.429468 -3.15796,0.367257 -4.639571,-0.241361 -1.445669,-0.593853 -2.693442,-1.706226 -3.423511,-3.117362 -0.60146,-1.164627 -0.844295,-2.530513 -0.597441,-3.827104 0.246902,-1.296869 0.995555,-2.498993 2.08511,-3.230512 1.103151,-0.740654 2.534713,-0.960893 3.768358,-0.542922 0.630927,0.216828 1.195074,0.589959 1.626915,1.06908 0.448777,0.497911 0.749043,1.104336 0.87306,1.72953 0.125536,0.63402 0.06909,1.27749 -0.128325,1.845197 -0.214582,0.617071 -0.591532,1.138976 -1.039224,1.52101 -0.507901,0.433412 -1.099526,0.684845 -1.659323,0.785334 -0.693111,0.124419 -1.331482,0.02233 -1.8249,-0.156963 0.493882,0.179467 1.132636,0.277617 1.823072,0.147041 0.557544,-0.105443 1.142824,-0.362834 1.640587,-0.799189 0.438756,-0.384628 0.802927,-0.905834 1.004494,-1.515984 0.185453,-0.561371 0.229665,-1.192546 0.09678,-1.808492 -0.130816,-0.607406 -0.433045,-1.19142 -0.875484,-1.665649 -0.425771,-0.456364 -0.976699,-0.806388 -1.586715,-1.003998 -1.188523,-0.39096 -2.56255,-0.16621 -3.612962,0.552877 -1.037623,0.710326 -1.745482,1.870315 -1.970699,3.114651 -0.225195,1.244186 0.01934,2.553302 0.606756,3.665993 0.711045,1.349351 1.916925,2.407089 3.304228,2.964996 1.421994,0.57186 3.014839,0.61906 4.437083,0.199026 1.479458,-0.43693 2.762031,-1.366832 3.648746,-2.537991 0.939835,-1.241317 1.434829,-2.737862 1.502211,-4.187619 0.0949,-2.011442 -0.609989,-3.939906 -1.587877,-5.488929 -1.100192,-1.742765 -2.598527,-3.142392 -3.986608,-4.251561 -4.48623,-3.591388 -9.433242,-5.423416 -13.686396,-6.156636 -0.07646,-0.01318 -0.270355,-0.272427 -0.347568,-0.284692 z"
         style="fill:#000000;fill-opacity:1;fill-rule:nonzero;stroke:none;stroke-width:0.52916664;stroke-miterlimit:4;stroke-dasharray:none;stroke-dashoffset:0;stroke-opacity:1" />
    </g>
  </g>
  <g
     inkscape:label="Slide 1"
     inkscape:groupmode="layer"
     id="layer1"
     transform="translate(0,-233.5)">
    <rect
       style="fill:#0000ff;fill-rule:evenodd;stroke-width:0.16021316"
       id="rect840"
       width="150.73575"
       height="3.0423727"
       x="-17.147919"
       y="294.23419" />
    <rect
       style="display:inline;fill:#0000ff;fill-rule:evenodd;stroke-width:0.16021316"
       id="rect840-2"
       width="150.73575"
       height="3.0423727"
       x="-10.438256"
       y="233.48276" />
    <text
       xml:space="preserve"
       style="font-style:normal;font-variant:normal;font-weight:normal;font-stretch:normal;font-size:3.17499995px;line-height:1;font-family:cmr10;-inkscape-font-specification:cmr10;font-variant-ligatures:normal;font-variant-position:normal;font-variant-caps:normal;font-variant-numeric:normal;font-variant-alternates:normal;font-feature-settings:normal;text-indent:0;text-align:start;text-decoration:none;text-decoration-line:none;text-decoration-style:solid;text-decoration-color:#000000;letter-spacing:0px;word-spacing:0px;text-transform:none;writing-mode:lr-tb;direction:ltr;text-orientation:mixed;dominant-baseline:auto;baseline-shift:baseline;text-anchor:start;white-space:normal;shape-padding:0;opacity:1;vector-effect:none;fill:#ffffff;fill-opacity:1;stroke:none;stroke-width:0.52916664;stroke-linecap:butt;stroke-linejoin:miter;stroke-miterlimit:4;stroke-dasharray:none;stroke-dashoffset:0;stroke-opacity:1"
       x="49.229031"
       y="296.79459"
       id="text859"><tspan
         sodipodi:role="line"
         id="tspan857"
         x="49.229031"
         y="296.79459"
         style="fill:#ffffff;stroke-width:0.52916664">Presentation</tspan></text>
  </g>
  
</svg>
