<?xml version="1.0" encoding="UTF-8" standalone="no"?>
<!-- Created with Inkscape (http://www.inkscape.org/) -->

<svg
   xmlns:dc="http://purl.org/dc/elements/1.1/"
   xmlns:cc="http://creativecommons.org/ns#"
   xmlns:rdf="http://www.w3.org/1999/02/22-rdf-syntax-ns#"
   xmlns:svg="http://www.w3.org/2000/svg"
   xmlns="http://www.w3.org/2000/svg"
   xmlns:sodipodi="http://sodipodi.sourceforge.net/DTD/sodipodi-0.dtd"
   xmlns:inkscape="http://www.inkscape.org/namespaces/inkscape"
   width="426"
   height="240"
   viewBox="0 0 112.7125 63.500002"
   version="1.1"
   id="svg8"
   inkscape:version="0.92.5 (0.92.5+69)"
   sodipodi:docname="presentation_B.svg">
  <defs
     id="defs2">
    <inkscape:path-effect
       effect="skeletal"
       id="path-effect860"
       is_visible="true"
       pattern="M 0,5 C 0,2.24 2.24,0 5,0 7.76,0 10,2.24 10,5 10,7.76 7.76,10 5,10 2.24,10 0,7.76 0,5 Z"
       copytype="single_stretched"
       prop_scale="1"
       scale_y_rel="false"
       spacing="0"
       normal_offset="0"
       tang_offset="0"
       prop_units="false"
       vertical_pattern="false"
       fuse_tolerance="0" />
    <inkscape:path-effect
       effect="bspline"
       id="path-effect858"
       is_visible="true"
       weight="33.333333"
       steps="2"
       helper_size="0"
       apply_no_weight="true"
       apply_with_weight="true"
       only_selected="false" />
    <inkscape:path-effect
       effect="skeletal"
       id="path-effect854"
       is_visible="true"
       pattern="M 0,5 C 0,2.24 2.24,0 5,0 7.76,0 10,2.24 10,5 10,7.76 7.76,10 5,10 2.24,10 0,7.76 0,5 Z"
       copytype="single_stretched"
       prop_scale="1"
       scale_y_rel="false"
       spacing="0"
       normal_offset="0"
       tang_offset="0"
       prop_units="false"
       vertical_pattern="false"
       fuse_tolerance="0" />
    <inkscape:path-effect
       effect="spiro"
       id="path-effect852"
       is_visible="true" />
    <inkscape:path-effect
       effect="skeletal"
       id="path-effect848"
       is_visible="true"
       pattern="M 0,5 C 0,2.24 2.24,0 5,0 7.76,0 10,2.24 10,5 10,7.76 7.76,10 5,10 2.24,10 0,7.76 0,5 Z"
       copytype="single_stretched"
       prop_scale="1"
       scale_y_rel="false"
       spacing="0"
       normal_offset="0"
       tang_offset="0"
       prop_units="false"
       vertical_pattern="false"
       fuse_tolerance="0" />
    <inkscape:path-effect
       effect="spiro"
       id="path-effect846"
       is_visible="true" />
    <inkscape:path-effect
       effect="powerstroke"
       id="path-effect857"
       is_visible="true"
       offset_points="0.024944403,-0.22408099"
       sort_points="true"
       interpolator_type="CubicBezierJohan"
       interpolator_beta="0.2"
       start_linecap_type="zerowidth"
       linejoin_type="extrp_arc"
       miter_limit="4"
       end_linecap_type="zerowidth" />
    <inkscape:path-effect
       effect="spiro"
       id="path-effect855"
       is_visible="true" />
    <inkscape:path-effect
       effect="powerstroke"
       id="path-effect847"
       is_visible="true"
       offset_points="0,0.26458332"
       sort_points="true"
       interpolator_type="CubicBezierJohan"
       interpolator_beta="0.2"
       start_linecap_type="zerowidth"
       linejoin_type="extrp_arc"
       miter_limit="4"
       end_linecap_type="zerowidth" />
    <inkscape:path-effect
       effect="spiro"
       id="path-effect845"
       is_visible="true" />
    <inkscape:path-effect
       effect="powerstroke"
       id="path-effect841"
       is_visible="true"
       offset_points="0,0.26458332"
       sort_points="true"
       interpolator_type="CubicBezierJohan"
       interpolator_beta="0.2"
       start_linecap_type="zerowidth"
       linejoin_type="extrp_arc"
       miter_limit="4"
       end_linecap_type="zerowidth" />
    <inkscape:path-effect
       effect="spiro"
       id="path-effect839"
       is_visible="true" />
  </defs>
  <sodipodi:namedview
     id="base"
     pagecolor="#ffffff"
     bordercolor="#666666"
     borderopacity="1.0"
     inkscape:pageopacity="0.0"
     inkscape:pageshadow="2"
     inkscape:zoom="0.74030879"
     inkscape:cx="118.88797"
     inkscape:cy="-16.50806"
     inkscape:document-units="mm"
     inkscape:current-layer="layer3"
     showgrid="false"
     inkscape:window-width="1920"
     inkscape:window-height="1052"
     inkscape:window-x="0"
     inkscape:window-y="0"
     inkscape:window-maximized="1"
     units="px"
     inkscape:pagecheckerboard="false" />
  <metadata
     id="metadata5">
    <rdf:RDF>
      <cc:Work
         rdf:about="">
        <dc:format>image/svg+xml</dc:format>
        <dc:type
           rdf:resource="http://purl.org/dc/dcmitype/StillImage" />
        <dc:title></dc:title>
        <cc:license
           rdf:resource="http://creativecommons.org/licenses/by-sa/4.0/" />
      </cc:Work>
      <cc:License
         rdf:about="http://creativecommons.org/licenses/by-sa/4.0/">
        <cc:permits
           rdf:resource="http://creativecommons.org/ns#Reproduction" />
        <cc:permits
           rdf:resource="http://creativecommons.org/ns#Distribution" />
        <cc:requires
           rdf:resource="http://creativecommons.org/ns#Notice" />
        <cc:requires
           rdf:resource="http://creativecommons.org/ns#Attribution" />
        <cc:permits
           rdf:resource="http://creativecommons.org/ns#DerivativeWorks" />
        <cc:requires
           rdf:resource="http://creativecommons.org/ns#ShareAlike" />
      </cc:License>
    </rdf:RDF>
  </metadata>
  <g
     inkscape:groupmode="layer"
     id="layer3"
     inkscape:label="background">
    <rect
       style="fill:#ffffff;fill-rule:evenodd;stroke-width:0.28856465"
       id="rect841"
       width="112.7125"
       height="63.5"
       x="0"
       y="2.1316282e-14" />
  </g>
  <g
     inkscape:label="Slide 1"
     inkscape:groupmode="layer"
     id="layer1"
     transform="translate(0,-233.5)"
     style="display:inline">
    <path
       style="fill:#e6e6e6;fill-opacity:1;stroke:none;stroke-width:0.52916664;stroke-miterlimit:4;stroke-dasharray:none;stroke-dashoffset:0;stroke-opacity:1"
       d="m 76.95457,291.06411 c 0.01264,-0.60598 2.58023,-0.91879 6.714616,-2.42134 3.949117,-1.43522 10.100967,-4.45203 14.475283,-10.50535 3.943011,-5.40512 6.595371,-13.91441 4.381541,-22.40791 -1.63075,-6.47744 -6.259652,-12.94095 -12.940098,-16.77177 -5.956465,-3.44622 -13.692993,-4.73511 -21.111438,-3.21093 -3.431441,0.69609 -6.806401,2.01369 -9.959286,3.86405 -3.313618,1.94468 -6.28158,4.41884 -8.7496,7.22306 -5.109726,5.78945 -8.14671,13.11793 -9.257573,20.27761 -0.67814,4.40199 -0.725353,9.40197 -1.827063,14.52828 -0.585355,2.72687 -1.54852,5.42909 -3.000651,7.95579 -1.523424,2.66562 -3.685101,4.96086 -6.338154,6.6139 -2.446073,1.48604 -5.158926,2.25388 -7.837748,2.34908 -2.838714,0.0964 -5.543676,-0.5636 -7.877979,-1.77083 -2.500945,-1.29819 -4.4969423,-3.18142 -5.9016459,-5.32751 -1.5280984,-2.34184 -2.3110584,-4.92398 -2.4696161,-7.40575 -0.1736318,-2.77499 0.4321215,-5.35021 1.4805499,-7.49217 0,0 3.9e-6,0 3.9e-6,0 1.2266899,-2.49866 3.0225412,-4.35911 4.8817562,-5.6032 2.37948,-1.58875 4.838589,-2.17526 6.802879,-2.25877 4.834446,-0.20187 6.460852,2.01549 6.383193,2.22413 -0.196921,0.52905 -2.511422,-0.0666 -5.89439,0.96576 -1.444745,0.43933 -3.112412,1.2531 -4.534543,2.61825 -1.109849,1.06226 -2.099169,2.49741 -2.647921,4.17567 10e-7,0 -1e-6,10e-6 -1e-6,10e-6 -0.471574,1.43317 -0.633074,3.09262 -0.336908,4.71517 0.261112,1.44864 0.899074,2.92398 1.884844,4.14246 0.899686,1.11785 2.132117,2.07008 3.523353,2.64067 1.293871,0.53493 2.791019,0.76592 4.233693,0.60193 1.359933,-0.15034 2.747554,-0.65952 3.89718,-1.47374 1.285973,-0.86687 2.375746,-2.25864 3.24942,-3.89518 0.83628,-1.58042 1.36557,-3.46103 1.753329,-5.54537 0.73122,-3.93566 0.55428,-8.63036 1.215059,-14.0365 1.077337,-8.87157 4.665322,-17.98127 11.111466,-25.51256 3.134412,-3.65378 6.919413,-6.84229 11.207024,-9.34379 4.078855,-2.3797 8.489371,-4.06563 13.044783,-4.97906 9.916684,-1.96919 19.948415,-0.0196 27.918525,4.82501 8.940157,5.46813 14.525607,14.22813 16.313577,23.07284 2.27928,11.63707 -2.02655,21.99226 -7.66101,28.28299 -6.288458,6.97056 -13.972765,9.28283 -18.640384,9.82563 -4.953493,0.57604 -7.495986,-0.46505 -7.486066,-0.94056 z"
       id="path850"
       inkscape:connector-curvature="0"
       inkscape:path-effect="#path-effect852;#path-effect854"
       inkscape:original-d="m 76.95457,291.06411 c -49.819338,1.69623 53.28141,-40.13766 29.67945,-36.25133 -23.601966,3.88633 -67.90967,2.89755 -70.806685,11.65979 -2.897016,8.76224 -5.794294,17.52474 -8.691838,26.28751 -2.897544,8.76277 -1.554374,-14.55733 -2.331958,-21.8356"
       transform="matrix(0.83621719,0,0,0.83621719,18.875539,46.780322)" />
    <path
       style="fill:#e6e6e6;fill-opacity:1;stroke:none;stroke-width:0.52916664;stroke-miterlimit:4;stroke-dasharray:none;stroke-dashoffset:0;stroke-opacity:1"
       d="m 7.6318583,240.18506 c 0.048244,-0.49357 5.0474567,-2.08948 13.9181967,-0.68706 2.900293,0.30408 7.455363,1.42374 10.654152,5.83299 1.10581,1.90644 1.642163,3.86197 1.836557,5.62625 0.245125,1.72484 0.331008,3.32805 0.532431,4.70093 0.256381,1.16701 0.34504,2.03057 0.638694,2.15764 -0.17144,-0.0593 0.159825,-0.0901 0.528837,-0.007 1.328586,0.18741 3.024766,-0.28554 5.34782,-0.71572 2.709085,-0.59038 5.301042,-1.31408 8.362798,-2.09773 2.669356,-0.69226 5.639461,-1.43691 8.811884,-1.90782 1.9493,-0.48195 4.916585,-0.70915 8.544863,0.47389 1.48323,0.59288 2.787802,1.62135 3.798086,3.04831 0.881697,1.3985 1.364644,2.72911 1.514948,3.8915 0.37259,2.63179 0.179464,4.85263 -0.111064,6.59346 -0.245503,1.92041 -0.564293,3.60131 -0.622401,4.96584 0.158152,0.70037 0.0981,1.12268 -0.02301,1.14138 -0.08386,0.0129 -0.195887,-0.16865 -0.282084,-0.58143 -0.948588,-0.48009 -0.95765,-0.94783 -0.0091,-0.46775 0,0 4e-6,0 4e-6,0 1.14293,0.11644 2.59243,-0.0711 4.272251,-0.25421 1.66074,-0.20618 3.412315,-0.49068 5.425804,-0.66685 0.781709,-0.0774 1.723813,-0.12037 2.819201,-0.0625 0.70646,-0.0708 1.929633,0.20848 3.562113,0.97897 1.509299,0.93487 2.501999,2.24485 2.934578,3.82727 0,0 4e-6,2e-5 4e-6,2e-5 0.301399,1.51652 0.29298,2.64169 0.08954,3.34232 -0.385318,1.89173 -0.945805,3.28247 -1.364441,4.23991 -0.451897,1.21692 -0.842689,2.04011 -0.919199,2.5963 0,0 0,1e-5 0,1e-5 -0.0014,0.21276 -0.05546,0.16145 -0.0744,-0.15615 0,0 0,0 0,0 -0.05343,-0.43126 -0.334929,-0.87123 -0.833536,-1.41409 -0.915587,-0.27993 -0.642351,-0.58352 0.591944,-0.12213 1.348915,0.17279 2.961459,0.17717 4.662458,0.23005 1.752762,0.0377 3.638096,0.103 5.688534,0.42453 1.495181,-0.0128 3.693241,0.77646 5.934601,2.78181 1.78906,2.55084 2.13213,4.83247 1.68924,6.37186 -0.28539,1.96473 -0.82861,3.58856 -1.31548,4.88549 -0.51403,1.47433 -0.97183,2.53137 -1.22287,3.53882 -0.076,0.39615 -0.15987,0.57401 -0.15996,0.56669 0,0 0,0 0,0 0.069,-0.10448 -0.1739,-0.40892 -0.61829,-1.01458 -0.64298,-0.39792 -0.86983,-0.55591 -0.8572,-0.41958 0.0963,0.0787 0.4134,0.0639 0.88404,0.0539 1.46845,-0.0822 3.15914,-0.54163 4.71781,-0.95691 9.22045,-2.51156 14.55526,-4.74384 15.12949,-3.49966 0.30723,0.66566 -4.08011,4.60081 -13.17997,8.80453 -1.52337,0.71789 -3.43747,1.53687 -5.67756,2.03187 -0.69477,0.17073 -1.59999,0.27837 -2.71591,0.20386 -0.810569,0.0306 -1.896947,-0.37767 -3.141388,-1.37675 -0.997081,-1.15834 -1.489118,-2.26225 -1.495537,-3.16174 0,0 0,-1e-5 0,-1e-5 -0.09859,-1.04008 -0.04673,-1.90246 0.07335,-2.55188 0.258474,-1.70368 0.663152,-3.11841 1.001951,-4.43654 0.316782,-1.33461 0.632667,-2.52782 0.631174,-3.44753 -0.252605,-0.70156 -0.01215,-0.78794 0.210798,0.0331 1.09425,0.35249 -0.511897,0.22925 -1.03688,0.0537 -1.297716,-0.13275 -2.761293,-0.0603 -4.529005,-0.0182 -1.579523,0.0569 -3.437143,0.13775 -5.475668,0.0125 -1.18062,0.22605 -3.39014,-0.23003 -6.141298,-2.17482 -1.132171,-1.13358 -1.81367,-2.39234 -2.027016,-3.68201 0,0 -3e-6,-2e-5 -3e-6,-2e-5 -0.200817,-1.29569 -0.1794,-2.35169 -0.0144,-3.12836 0,0 2e-6,-1e-5 2e-6,-1e-5 0.329279,-1.85123 0.841238,-3.30329 1.270062,-4.41423 0.399577,-1.20565 0.762895,-2.01879 0.765166,-2.44712 -0.06227,-0.14768 -0.0018,0.0935 0.07498,0.77448 0,0 10e-7,10e-6 10e-7,10e-6 0.242556,0.87571 0.767071,1.55389 1.636704,2.1255 0.777832,0.28443 0.975201,0.43934 0.693417,0.31359 -0.287106,-0.0211 -0.732194,0.0288 -1.340839,0.0821 -1.489171,0.15296 -3.162006,0.45931 -5.05754,0.71864 -1.765551,0.26806 -3.86058,0.49601 -6.244168,0.37052 0,0 -1e-5,0 -1e-5,0 -1.786671,0.23392 -4.413326,-0.65554 -7.137061,-3.27079 -0.783573,-1.29092 -1.307357,-2.49821 -1.622634,-3.58174 -0.454246,-1.56114 -0.472454,-2.85385 -0.222982,-3.76299 0.145856,-2.22549 0.501135,-4.15569 0.732329,-5.7412 0.176065,-1.69034 0.411224,-2.89894 0.223531,-3.62324 -0.08163,-0.22327 -0.02612,-0.24704 0.07614,-0.004 0.239303,0.28539 0.415973,0.4369 0.635971,0.51013 -0.177582,-0.37748 -1.536164,-0.0193 -3.555271,0.0191 -2.541318,0.27998 -5.252564,0.86565 -7.945397,1.42666 -2.97803,0.62839 -5.807627,1.25534 -8.858382,1.74016 -2.31796,0.43538 -5.051573,0.77085 -8.144015,0.33982 -2.421167,-0.30844 -4.685741,-1.74204 -6.274241,-4.0924 -1.16387,-2.24828 -1.47224,-4.23719 -1.453836,-5.7172 -0.08735,-1.84598 -0.01229,-3.38737 -0.06272,-4.6843 -0.11126,-1.36151 -0.13986,-2.35749 -0.474398,-2.99025 -0.355544,-1.80138 -3.639421,-3.01411 -6.040587,-4.03317 -7.527898,-2.69712 -12.729457,-3.48956 -12.6347217,-4.45878 z"
       id="path856"
       inkscape:connector-curvature="0"
       inkscape:path-effect="#path-effect858;#path-effect860"
       inkscape:original-d="m 7.6318583,240.18506 c 9.3987567,0.91838 18.7972487,1.83703 28.1954767,2.75594 -3.744905,9.04468 -7.490265,18.09007 -11.235792,27.1355 17.384555,-7.13772 34.767619,-14.27467 52.151032,-21.4116 -6.218174,11.72997 -12.436838,23.46063 -18.655654,35.19134 11.943032,-4.52296 23.885154,-9.04543 35.827334,-13.56775 -6.359448,7.70206 -12.719499,15.26346 -19.079646,22.89558 11.589819,-2.75632 23.1785,-5.51216 34.767351,-8.26785 -5.93546,8.83267 -11.871511,17.66608 -17.807666,26.49951 10.105756,-4.66434 20.210556,-9.32809 30.315436,-13.99174"
       transform="translate(-19.627608,-13.087713)" />
    <text
       xml:space="preserve"
       style="font-style:normal;font-variant:normal;font-weight:normal;font-stretch:normal;font-size:3.17499995px;line-height:1;font-family:cmr10;-inkscape-font-specification:cmr10;font-variant-ligatures:normal;font-variant-position:normal;font-variant-caps:normal;font-variant-numeric:normal;font-variant-alternates:normal;font-feature-settings:normal;text-indent:0;text-align:start;text-decoration:none;text-decoration-line:none;text-decoration-style:solid;text-decoration-color:#000000;letter-spacing:0px;word-spacing:0px;text-transform:none;writing-mode:lr-tb;direction:ltr;text-orientation:mixed;dominant-baseline:auto;baseline-shift:baseline;text-anchor:start;white-space:normal;shape-padding:0;opacity:1;vector-effect:none;fill:#000000;fill-opacity:1;stroke:none;stroke-width:0.52916664;stroke-linecap:butt;stroke-linejoin:miter;stroke-miterlimit:4;stroke-dasharray:none;stroke-dashoffset:0;stroke-opacity:1"
       x="1.9079645"
       y="267.10855"
       id="text864"><tspan
         sodipodi:role="line"
         id="tspan862"
         x="1.9079645"
         y="267.10855"
         style="stroke-width:0.52916664">First slide of presentation B</tspan></text>
  </g>
  <g
     inkscape:groupmode="layer"
     id="layer2"
     inkscape:label="Slide 2"
     style="display:inline">
    <rect
       style="fill:#ff00ff;fill-rule:evenodd;stroke-width:0.18905193"
       id="rect861"
       width="4.6201797"
       height="63.947983"
       x="108.05331"
       y="-0.19833076" />
    <path
       style="fill:#ff00ff;fill-opacity:1;stroke:none;stroke-width:0.35423657;stroke-miterlimit:4;stroke-dasharray:none;stroke-dashoffset:0;stroke-opacity:1"
       d="m 108.58248,-0.19444905 c 0,0 -4.13974,2.67627905 -4.13974,5.33998565 0,2.9274098 4.13974,5.3399864 4.13974,5.3399864 0,0 -4.13974,2.676278 -4.13974,5.339985 0,2.663708 4.13974,5.339985 4.13974,5.339985 0,0 -4.13974,2.67628 -4.13974,5.339986 0,2.663707 4.13974,5.339986 4.13974,5.339986 0,0 -4.13974,2.676279 -4.13974,5.339986 0,2.663706 4.13974,5.339986 4.13974,5.339986 0,0 -4.13974,2.676278 -4.13974,5.339986 0,2.663706 4.13974,5.339985 4.13974,5.339985 0,0 -4.13974,2.676279 -4.13974,5.339986 0,2.663706 4.13974,5.339986 4.13974,5.339986"
       id="path863"
       inkscape:connector-curvature="0"
       sodipodi:nodetypes="ccccccccccccc" />
    <rect
       style="display:inline;fill:#ff00ff;fill-rule:evenodd;stroke-width:0.18905193"
       id="rect861-9"
       width="4.6201797"
       height="63.947983"
       x="-4.6118002"
       y="-0.22438018"
       transform="scale(-1,1)" />
    <path
       style="display:inline;fill:#ff00ff;fill-opacity:1;stroke:none;stroke-width:0.35423657;stroke-miterlimit:4;stroke-dasharray:none;stroke-dashoffset:0;stroke-opacity:1"
       d="m 4.0826254,-0.2204983 c 0,0 4.139741,2.676279 4.139741,5.339986 0,2.92741 -4.139741,5.3399863 -4.139741,5.3399863 0,0 4.139741,2.676278 4.139741,5.339985 0,2.663708 -4.139741,5.339985 -4.139741,5.339985 0,0 4.139741,2.67628 4.139741,5.339987 0,2.663706 -4.139741,5.339985 -4.139741,5.339985 0,0 4.139741,2.676279 4.139741,5.339985 0,2.663708 -4.139741,5.339987 -4.139741,5.339987 0,0 4.139741,2.676279 4.139741,5.339985 0,2.663706 -4.139741,5.339985 -4.139741,5.339985 0,0 4.139741,2.676279 4.139741,5.339988 0,2.663706 -4.139741,5.339985 -4.139741,5.339985"
       id="path863-1"
       inkscape:connector-curvature="0"
       sodipodi:nodetypes="ccccccccccccc" />
  </g>
</svg>
